<?xml version="1.0" encoding="utf-8"?>
<!-- Generator: Adobe Illustrator 20.1.0, SVG Export Plug-In . SVG Version: 6.00 Build 0)  -->
<svg version="1.1" id="Слой_1" xmlns="http://www.w3.org/2000/svg" xmlns:xlink="http://www.w3.org/1999/xlink" x="0px" y="0px"
	 viewBox="0 0 36 36" style="enable-background:new 0 0 36 36;" xml:space="preserve">
<style type="text/css">
	.st0{fill:#264970;}
</style>
<g>
	<path class="st0" d="M10.2,2.4c-1.3,0-2.3,1-2.3,2.3C7.8,6,8.9,7,10.2,7c1.3,0,2.3-1,2.3-2.3C12.5,3.4,11.5,2.4,10.2,2.4 M25.5,2.4
		c-1.3,0-2.3,1-2.3,2.3c0,1.3,1,2.3,2.3,2.3c1.3,0,2.3-1,2.3-2.3C27.8,3.4,26.7,2.4,25.5,2.4 M17.8,0.3c-1.3,0-2.3,1-2.3,2.3
		c0,1.3,1,2.3,2.3,2.3c1.3,0,2.3-1,2.3-2.3C20.1,1.3,19.1,0.3,17.8,0.3 M31,8.9c-0.1-0.1-0.3-0.1-0.4-0.1c-0.1,0-0.2,0-0.3,0
		c-1.6,0.6-3.2,1.1-4.6,1.4c-0.3,0.1-0.5,0.3-0.6,0.6c-1.1,2.9-3.8,5.7-6.6,8.6c-0.1,0.1-0.3,0.3-0.5,0.3c-0.3,0-0.4-0.1-0.5-0.3
		c-2.9-2.9-5.6-5.7-6.6-8.6c-0.1-0.3-0.3-0.5-0.6-0.6C8.5,9.8,6.9,9.4,5.4,8.8c-0.1,0-0.2,0-0.3,0c-0.2,0-0.3,0-0.4,0.1
		C4.5,9,4.4,9.3,4.4,9.5c0.2,2.4,1.2,4.8,2.9,7.3c1.6,2.3,3.7,4.5,5.8,6.6c3.8,3.9,7.3,7.5,7.7,11.7c0,0.4,0.3,0.7,0.7,0.7h4.4
		c0.4,0,0.7-0.3,0.7-0.7c0,0,0,0,0,0c-0.1-2.8-1.2-5.6-3.2-8.6c-0.4-0.6-0.9-1.2-1.4-1.8c-0.2-0.2-0.1-0.5,0-0.7
		c0.1-0.2,0.3-0.3,0.4-0.5c2-2.1,4.2-4.3,5.8-6.6c1.7-2.5,2.7-4.8,2.9-7.3C31.3,9.3,31.2,9,31,8.9 M13,26.6
		c-0.1-0.1-0.3-0.2-0.5-0.2c-0.3,0-0.5,0.2-0.6,0.3c-1.9,2.8-2.8,5.5-3,8.2c0,0.2,0.1,0.4,0.2,0.5c0.1,0.1,0.3,0.2,0.5,0.2h4.4
		c0.4,0,0.7-0.3,0.7-0.7c0.1-1.3,0.5-2.6,1.2-4c0.3-0.5,0.1-0.9-0.1-1.1C15.3,29,14.4,28,13,26.6"/>
	<path class="st0" d="M17.8,11c1.4,0,2.2-0.1,2.5-0.1c0.3,0,0.7,0.3,0.7,0.7c0,0.1,0,0.2-0.1,0.3c-0.2,0.5-1,2.3-2.6,3.8
		c-0.2,0.2-0.4,0.2-0.5,0.2h0c-0.1,0-0.3,0-0.5-0.2c-1.6-1.5-2.4-3.3-2.6-3.8c0-0.1-0.1-0.2-0.1-0.3c0-0.4,0.3-0.7,0.7-0.7
		C15.6,11,16.4,11,17.8,11L17.8,11"/>
</g>
</svg>
